<?xml version="1.0" standalone="no"?>
<!DOCTYPE svg PUBLIC "-//W3C//DTD SVG 20010904//EN"
 "http://www.w3.org/TR/2001/REC-SVG-20010904/DTD/svg10.dtd">
<svg version="1.0" xmlns="http://www.w3.org/2000/svg"
 width="512.000000pt" height="512.000000pt" viewBox="0 0 512.000000 512.000000"
 preserveAspectRatio="xMidYMid meet" style="border: none;">

<rect width="100%" height="100%" fill="#161817" />

<g transform="translate(0.000000,512.000000) scale(0.100000,-0.100000)"
fill="white" stroke="none">
<path d="M2026 3930 c-318 -50 -584 -230 -748 -505 -150 -250 -180 -586 -78
-868 92 -252 273 -454 515 -572 172 -85 244 -100 460 -99 167 0 187 2 270 27
151 46 290 121 391 209 l35 31 497 -496 c445 -445 501 -497 529 -497 23 0 38
8 57 31 30 35 32 49 12 87 -8 15 -233 245 -499 510 l-484 484 45 66 c170 252
217 584 125 877 -132 420 -509 706 -948 720 -66 2 -147 0 -179 -5z m299 -165
c337 -59 615 -321 695 -655 24 -104 27 -276 5 -380 -70 -334 -341 -605 -675
-676 -36 -7 -117 -14 -180 -14 -402 0 -735 259 -843 655 -30 112 -30 315 2
430 120 444 547 718 996 640z"/>
</g>
</svg>
