<?xml version="1.0" standalone="no"?>
<!DOCTYPE svg PUBLIC "-//W3C//DTD SVG 20010904//EN"
 "http://www.w3.org/TR/2001/REC-SVG-20010904/DTD/svg10.dtd">
<svg version="1.0" xmlns="http://www.w3.org/2000/svg"
 width="512.000000pt" height="512.000000pt" viewBox="0 0 512.000000 512.000000"
 preserveAspectRatio="xMidYMid meet">

<rect width="100%" height="100%" fill="#161817" />

<g transform="translate(0.000000,512.000000) scale(0.100000,-0.100000)"
fill="white" stroke="none">
<path d="M1720 4729 c-35 -14 -69 -48 -89 -89 -10 -19 -62 -151 -116 -292
l-98 -258 -492 0 c-285 0 -515 -4 -546 -10 -178 -33 -331 -181 -368 -358 -16
-75 -16 -2899 0 -2974 37 -177 190 -325 368 -358 74 -14 4288 -14 4362 0 178
33 331 181 368 358 16 75 16 2899 0 2974 -33 154 -148 285 -304 344 -46 17
-91 19 -576 22 l-527 3 -103 272 c-107 280 -125 316 -172 351 -28 21 -34 21
-855 23 -536 1 -836 -2 -852 -8z m1614 -572 c118 -312 126 -329 168 -359 l33
-23 587 -5 c573 -5 587 -5 615 -26 15 -11 36 -36 46 -55 16 -32 17 -118 15
-1466 -3 -1430 -3 -1432 -24 -1460 -11 -15 -36 -36 -55 -45 -32 -17 -156 -18
-2159 -18 -2003 0 -2127 1 -2159 18 -19 9 -44 30 -55 45 -21 28 -21 30 -24
1460 -2 1348 -1 1434 15 1466 10 19 31 44 46 55 28 21 42 21 615 26 l587 5 33
23 c42 30 50 47 168 359 l99 263 675 0 675 0 99 -263z"/>
<path d="M2338 3624 c-258 -46 -477 -162 -668 -354 -249 -248 -370 -541 -370
-890 0 -207 42 -386 131 -564 314 -622 1073 -876 1691 -565 359 180 614 522
683 913 19 112 19 318 0 429 -92 527 -505 940 -1032 1032 -106 19 -330 18
-435 -1z m485 -338 c316 -95 555 -337 647 -657 31 -106 39 -316 15 -430 -71
-353 -330 -630 -682 -731 -67 -20 -102 -23 -243 -23 -141 0 -176 3 -243 23
-328 94 -573 338 -667 663 -31 106 -39 316 -15 430 65 321 284 582 585 698
129 50 198 61 365 57 127 -3 164 -8 238 -30z"/>
</g>
</svg>
