<?xml version="1.0" standalone="no"?>
<!DOCTYPE svg PUBLIC "-//W3C//DTD SVG 20010904//EN"
 "http://www.w3.org/TR/2001/REC-SVG-20010904/DTD/svg10.dtd">
<svg version="1.0" xmlns="http://www.w3.org/2000/svg"
 width="4096.000000pt" height="4096.000000pt" viewBox="0 0 4096.000000 4096.000000"
 preserveAspectRatio="xMidYMid meet">
<rect width="100%" height="100%" fill="#161817" />
<g transform="translate(0.000000,4096.000000) scale(0.100000,-0.100000)"
fill="white" stroke="none">
<path d="M20355 30714 c-232 -27 -372 -61 -534 -129 -208 -88 -383 -206 -546
-370 -259 -258 -413 -559 -477 -930 -27 -161 -22 -457 11 -609 156 -724 726
-1255 1449 -1351 338 -45 693 15 995 169 460 235 783 659 899 1182 19 86 22
129 22 334 1 209 -2 247 -22 340 -150 685 -660 1196 -1334 1334 -141 29 -351
42 -463 30z"/>
<path d="M20216 22165 c-705 -115 -1253 -639 -1408 -1348 -20 -89 -22 -131
-22 -337 0 -206 2 -248 22 -337 150 -686 653 -1188 1338 -1335 97 -20 135 -23
339 -23 199 1 244 4 332 23 158 34 276 76 428 152 466 232 792 656 907 1183
20 89 22 131 22 337 0 206 -2 248 -22 337 -65 296 -202 573 -392 788 -242 275
-570 466 -938 546 -128 28 -472 36 -606 14z"/>
<path d="M20310 13644 c-307 -37 -582 -141 -825 -313 -109 -77 -316 -286 -398
-401 -127 -181 -230 -419 -278 -646 -21 -97 -24 -135 -24 -339 0 -257 13 -340
81 -545 261 -783 1069 -1269 1889 -1135 698 113 1242 638 1397 1345 20 93 23
131 22 340 0 205 -3 248 -22 334 -136 612 -557 1087 -1132 1279 -171 57 -300
78 -500 82 -96 2 -191 1 -210 -1z"/>
</g>
</svg>
