<svg xmlns="http://www.w3.org/2000/svg" xmlns:xlink="http://www.w3.org/1999/xlink" width="1500" zoomAndPan="magnify" viewBox="0 0 768 767.999994" height="1500" preserveAspectRatio="xMidYMid meet" version="1.0"><defs><clipPath id="e858c9aaed"><path d="M 227.425781 267.351562 L 532.835938 267.351562 L 532.835938 572.757812 L 227.425781 572.757812 Z M 227.425781 267.351562 " clip-rule="nonzero"/></clipPath><clipPath id="84f8e7a90c"><path d="M 380.128906 267.351562 C 295.792969 267.351562 227.425781 335.71875 227.425781 420.054688 C 227.425781 504.390625 295.792969 572.757812 380.128906 572.757812 C 464.464844 572.757812 532.835938 504.390625 532.835938 420.054688 C 532.835938 335.71875 464.464844 267.351562 380.128906 267.351562 Z M 380.128906 267.351562 " clip-rule="nonzero"/></clipPath><clipPath id="3d1aaef14f"><path d="M 253.707031 293.628906 L 506.554688 293.628906 L 506.554688 546.476562 L 253.707031 546.476562 Z M 253.707031 293.628906 " clip-rule="nonzero"/></clipPath><clipPath id="ad252dcf6a"><path d="M 380.128906 293.628906 C 310.308594 293.628906 253.707031 350.230469 253.707031 420.054688 C 253.707031 489.875 310.308594 546.476562 380.128906 546.476562 C 449.953125 546.476562 506.554688 489.875 506.554688 420.054688 C 506.554688 350.230469 449.953125 293.628906 380.128906 293.628906 Z M 380.128906 293.628906 " clip-rule="nonzero"/></clipPath><clipPath id="aa0ed0304c"><path d="M 267 512 L 330 512 L 330 579 L 267 579 Z M 267 512 " clip-rule="nonzero"/></clipPath><clipPath id="ac43e25003"><path d="M 277.910156 512.09375 L 329.917969 553.527344 L 293.714844 598.96875 L 241.707031 557.53125 Z M 277.910156 512.09375 " clip-rule="nonzero"/></clipPath><clipPath id="6be75decb9"><path d="M 267.671875 578.21875 L 329.84375 553.46875 L 277.910156 512.09375 Z M 267.671875 578.21875 " clip-rule="nonzero"/></clipPath><clipPath id="017f4e52b4"><path d="M 435.894531 503.132812 L 468.371094 503.132812 L 468.371094 572.757812 L 435.894531 572.757812 Z M 435.894531 503.132812 " clip-rule="nonzero"/></clipPath><clipPath id="dc2e971551"><path d="M 241 293 L 306 293 L 306 378 L 241 378 Z M 241 293 " clip-rule="nonzero"/></clipPath><clipPath id="7c285a2c56"><path d="M 241.710938 307.882812 L 268.914062 293.628906 L 305.496094 363.4375 L 278.292969 377.691406 Z M 241.710938 307.882812 " clip-rule="nonzero"/></clipPath><clipPath id="f7483509f9"><path d="M 241.710938 307.882812 L 268.914062 293.628906 L 305.476562 363.402344 L 278.273438 377.65625 Z M 241.710938 307.882812 " clip-rule="nonzero"/></clipPath><clipPath id="77b58b6bfe"><path d="M 291.890625 331.8125 L 468.371094 331.8125 L 468.371094 508.292969 L 291.890625 508.292969 Z M 291.890625 331.8125 " clip-rule="nonzero"/></clipPath><clipPath id="2ffeae1850"><path d="M 380.128906 331.8125 C 331.398438 331.8125 291.890625 371.320312 291.890625 420.054688 C 291.890625 468.789062 331.398438 508.292969 380.128906 508.292969 C 428.863281 508.292969 468.371094 468.789062 468.371094 420.054688 C 468.371094 371.320312 428.863281 331.8125 380.128906 331.8125 Z M 380.128906 331.8125 " clip-rule="nonzero"/></clipPath><clipPath id="1602af0a65"><path d="M 320.984375 360.90625 L 439.277344 360.90625 L 439.277344 479.199219 L 320.984375 479.199219 Z M 320.984375 360.90625 " clip-rule="nonzero"/></clipPath><clipPath id="6c4174b1d1"><path d="M 380.128906 360.90625 C 347.464844 360.90625 320.984375 387.386719 320.984375 420.054688 C 320.984375 452.71875 347.464844 479.199219 380.128906 479.199219 C 412.796875 479.199219 439.277344 452.71875 439.277344 420.054688 C 439.277344 387.386719 412.796875 360.90625 380.128906 360.90625 Z M 380.128906 360.90625 " clip-rule="nonzero"/></clipPath><clipPath id="196fb35354"><path d="M 435.894531 267.351562 L 468.371094 267.351562 L 468.371094 336.972656 L 435.894531 336.972656 Z M 435.894531 267.351562 " clip-rule="nonzero"/></clipPath></defs><rect x="-76.8" width="921.6" fill="#ffffff" y="-76.799999" height="921.599993" fill-opacity="1"/><rect x="-76.8" width="921.6" fill="#262626" y="-76.799999" height="921.599993" fill-opacity="1"/><g clip-path="url(#e858c9aaed)"><g clip-path="url(#84f8e7a90c)"><path fill="#b6a7b6" d="M 227.425781 267.351562 L 532.835938 267.351562 L 532.835938 572.757812 L 227.425781 572.757812 Z M 227.425781 267.351562 " fill-opacity="1" fill-rule="nonzero"/></g></g><g clip-path="url(#3d1aaef14f)"><g clip-path="url(#ad252dcf6a)"><path fill="#383839" d="M 253.707031 293.628906 L 506.554688 293.628906 L 506.554688 546.476562 L 253.707031 546.476562 Z M 253.707031 293.628906 " fill-opacity="1" fill-rule="nonzero"/></g></g><g clip-path="url(#aa0ed0304c)"><g clip-path="url(#ac43e25003)"><g clip-path="url(#6be75decb9)"><path fill="#b6a7b6" d="M 277.910156 512.09375 L 329.917969 553.527344 L 293.714844 598.96875 L 241.707031 557.53125 Z M 277.910156 512.09375 " fill-opacity="1" fill-rule="nonzero"/></g></g></g><g clip-path="url(#017f4e52b4)"><path fill="#383839" d="M 435.894531 503.132812 L 468.371094 503.132812 L 468.371094 572.78125 L 435.894531 572.78125 Z M 435.894531 503.132812 " fill-opacity="1" fill-rule="nonzero"/></g><g clip-path="url(#dc2e971551)"><g clip-path="url(#7c285a2c56)"><g clip-path="url(#f7483509f9)"><path fill="#383839" d="M 241.710938 307.882812 L 268.914062 293.628906 L 305.496094 363.4375 L 278.292969 377.691406 Z M 241.710938 307.882812 " fill-opacity="1" fill-rule="nonzero"/></g></g></g><g clip-path="url(#77b58b6bfe)"><g clip-path="url(#2ffeae1850)"><path fill="#b6a7b6" d="M 291.890625 331.8125 L 468.371094 331.8125 L 468.371094 508.292969 L 291.890625 508.292969 Z M 291.890625 331.8125 " fill-opacity="1" fill-rule="nonzero"/></g></g><g clip-path="url(#1602af0a65)"><g clip-path="url(#6c4174b1d1)"><path fill="#383839" d="M 320.984375 360.90625 L 439.277344 360.90625 L 439.277344 479.199219 L 320.984375 479.199219 Z M 320.984375 360.90625 " fill-opacity="1" fill-rule="nonzero"/></g></g><g clip-path="url(#196fb35354)"><path fill="#383839" d="M 435.894531 267.351562 L 468.371094 267.351562 L 468.371094 336.996094 L 435.894531 336.996094 Z M 435.894531 267.351562 " fill-opacity="1" fill-rule="nonzero"/></g></svg>
